<svg xmlns="http://www.w3.org/2000/svg" version="1.1" xmlns:xlink="http://www.w3.org/1999/xlink" xmlns:svgjs="http://svgjs.dev/svgjs" width="1500" height="937" viewBox="0 0 1500 937"><g transform="matrix(1,0,0,1,0,0)"><svg viewBox="0 0 576 360" data-background-color="#000000" preserveAspectRatio="xMidYMid meet" height="937" width="1500" xmlns="http://www.w3.org/2000/svg" xmlns:xlink="http://www.w3.org/1999/xlink"><g id="tight-bounds" transform="matrix(1,0,0,1,0,0)"><svg viewBox="0 0 576 360" height="360" width="576"><rect width="576" height="360" fill="url(#defac858-730e-4156-93ab-ff1cb8bb8d21)" mask="url(#5ac4670e-be4d-4438-a85b-29103b112def)" data-fill-palette-color="tertiary"></rect><g><svg></svg></g><g><svg viewBox="0 0 576 360" height="360" width="576"><g><path d="M132.115 90l155.885-90 155.885 90v180l-155.885 90-155.885-90zM136.084 267.709l151.916 87.708 151.916-87.708v-175.418l-151.916-87.708-151.916 87.708z" fill="url(#defac858-730e-4156-93ab-ff1cb8bb8d21)" fill-rule="nonzero" stroke="none" stroke-width="1" stroke-linecap="butt" stroke-linejoin="miter" stroke-miterlimit="10" stroke-dasharray="" stroke-dashoffset="0" font-family="none" font-weight="none" font-size="none" text-anchor="none" style="mix-blend-mode: normal" data-fill-palette-color="tertiary"></path></g><g transform="matrix(1,0,0,1,172.8,122.39126341528899)"><svg viewBox="0 0 230.4 115.21747316942202" height="115.21747316942202" width="230.4"><g><svg viewBox="0 0 230.4 115.21747316942202" height="115.21747316942202" width="230.4"><g transform="matrix(1,0,0,1,0,71.20902071448106)"><svg viewBox="0 0 230.4 44.00845245494096" height="44.00845245494096" width="230.4"><g id="textblocktransform"><svg viewBox="0 0 230.4 44.00845245494096" height="44.00845245494096" width="230.4" id="textblock"><g><svg viewBox="0 0 230.4 44.00845245494096" height="44.00845245494096" width="230.4"><g transform="matrix(1,0,0,1,0,0)"><svg width="230.4" viewBox="4 -35.01 235.67 45.019999999999996" height="44.00845245494096" data-palette-color="url(#d786f602-b860-4a11-b83c-cb6ebe558262)"></svg></g></svg></g></svg></g></svg></g><g transform="matrix(1,0,0,1,68.10249562239173,0)"><svg viewBox="0 0 94.19500875521653 60.81968129272841" height="60.81968129272841" width="94.19500875521653"><g><svg xmlns="http://www.w3.org/2000/svg" xmlns:xlink="http://www.w3.org/1999/xlink" version="1.1" x="8" y="0" viewBox="5.000504273397457 14.999240821291442 89.99899145320506 70.00075917870856" style="enable-background:new 0 0 100 100;" xml:space="preserve" height="60.81968129272841" width="78.19500875521653" class="icon-icon-0" data-fill-palette-color="accent" id="icon-0"></svg></g></svg></g><g></g></svg></g></svg></g></svg></g><defs></defs><mask id="f3a83910-30ac-4a28-8c86-d6b1aa21813b"><g id="SvgjsG5166"><svg viewBox="0 0 576 360" height="360" width="576"><g><svg></svg></g><g><svg viewBox="0 0 576 360" height="360" width="576"><g><path d="M132.115 90l155.885-90 155.885 90v180l-155.885 90-155.885-90zM136.084 267.709l151.916 87.708 151.916-87.708v-175.418l-151.916-87.708-151.916 87.708z" fill="black" fill-rule="nonzero" stroke="none" stroke-width="1" stroke-linecap="butt" stroke-linejoin="miter" stroke-miterlimit="10" stroke-dasharray="" stroke-dashoffset="0" font-family="none" font-weight="none" font-size="none" text-anchor="none" style="mix-blend-mode: normal"></path></g><g transform="matrix(1,0,0,1,172.8,122.39126341528899)"><svg viewBox="0 0 230.4 115.21747316942202" height="115.21747316942202" width="230.4"><g><svg viewBox="0 0 230.4 115.21747316942202" height="115.21747316942202" width="230.4"><g transform="matrix(1,0,0,1,0,71.20902071448106)"><svg viewBox="0 0 230.4 44.00845245494096" height="44.00845245494096" width="230.4"><g id="SvgjsG5165"><svg viewBox="0 0 230.4 44.00845245494096" height="44.00845245494096" width="230.4" id="SvgjsSvg5164"><g><svg viewBox="0 0 230.4 44.00845245494096" height="44.00845245494096" width="230.4"><g transform="matrix(1,0,0,1,0,0)"><svg width="230.4" viewBox="4 -35.01 235.67 45.019999999999996" height="44.00845245494096" data-palette-color="url(#d786f602-b860-4a11-b83c-cb6ebe558262)"><path d="M7.15 0L4 0 4-35.01 7.15-35.01 7.15 0ZM30.86 0L27.85 0 27.85-18.31Q27.85-19.21 27.51-20.01 27.17-20.8 26.58-21.39 26-21.97 25.21-22.31 24.41-22.66 23.51-22.66L23.51-22.66 21.51-22.66Q20.6-22.66 19.81-22.31 19.02-21.97 18.43-21.39 17.84-20.8 17.5-20.01 17.16-19.21 17.16-18.31L17.16-18.31 17.16 0 14.16 0 14.16-25 15.16-25 16.79-22.46Q17.82-23.85 19.37-24.67 20.92-25.49 22.75-25.49L22.75-25.49 23.51-25.49Q25.02-25.49 26.36-24.91 27.71-24.34 28.71-23.34 29.71-22.34 30.28-21 30.86-19.65 30.86-18.14L30.86-18.14 30.86 0ZM53.56-6.86L53.56-6.86Q53.56-5.35 52.99-4 52.41-2.66 51.41-1.66 50.41-0.66 49.07-0.09 47.72 0.49 46.21 0.49L46.21 0.49 44.21 0.49Q42.7 0.49 41.35-0.09 40.01-0.66 39.01-1.66 38.01-2.66 37.43-4 36.86-5.35 36.86-6.86L36.86-6.86 36.86-18.14Q36.86-19.65 37.43-21 38.01-22.34 39.01-23.34 40.01-24.34 41.35-24.91 42.7-25.49 44.21-25.49L44.21-25.49 46.21-25.49Q47.72-25.49 49.07-24.91 50.41-24.34 51.41-23.34 52.41-22.34 52.99-21 53.56-19.65 53.56-18.14L53.56-18.14 53.56-17.14 50.56-16.65 50.56-18.31Q50.56-19.21 50.21-20.01 49.87-20.8 49.29-21.39 48.7-21.97 47.91-22.31 47.11-22.66 46.21-22.66L46.21-22.66 44.21-22.66Q43.31-22.66 42.51-22.31 41.72-21.97 41.13-21.39 40.55-20.8 40.2-20.01 39.86-19.21 39.86-18.31L39.86-18.31 39.86-6.69Q39.86-5.79 40.2-4.99 40.55-4.2 41.13-3.61 41.72-3.03 42.51-2.69 43.31-2.34 44.21-2.34L44.21-2.34 46.21-2.34Q47.11-2.34 47.91-2.69 48.7-3.03 49.29-3.61 49.87-4.2 50.21-4.99 50.56-5.79 50.56-6.69L50.56-6.69 50.56-8.35 53.56-7.86 53.56-6.86ZM76.26-6.86L76.26-6.86Q76.26-5.35 75.69-4 75.11-2.66 74.11-1.66 73.11-0.66 71.77-0.09 70.43 0.49 68.91 0.49L68.91 0.49 66.91 0.49Q65.4 0.49 64.06-0.09 62.71-0.66 61.71-1.66 60.71-2.66 60.14-4 59.56-5.35 59.56-6.86L59.56-6.86 59.56-18.14Q59.56-19.65 60.14-21 60.71-22.34 61.71-23.34 62.71-24.34 64.06-24.91 65.4-25.49 66.91-25.49L66.91-25.49 68.91-25.49Q70.43-25.49 71.77-24.91 73.11-24.34 74.11-23.34 75.11-22.34 75.69-21 76.26-19.65 76.26-18.14L76.26-18.14 76.26-6.86ZM73.26-6.69L73.26-18.31Q73.26-19.21 72.92-20.01 72.58-20.8 71.99-21.39 71.4-21.97 70.61-22.31 69.82-22.66 68.91-22.66L68.91-22.66 66.91-22.66Q66.01-22.66 65.21-22.31 64.42-21.97 63.84-21.39 63.25-20.8 62.91-20.01 62.57-19.21 62.57-18.31L62.57-18.31 62.57-6.69Q62.57-5.79 62.91-4.99 63.25-4.2 63.84-3.61 64.42-3.03 65.21-2.69 66.01-2.34 66.91-2.34L66.91-2.34 68.91-2.34Q69.82-2.34 70.61-2.69 71.4-3.03 71.99-3.61 72.58-4.2 72.92-4.99 73.26-5.79 73.26-6.69L73.26-6.69ZM99.21 3.15L99.21 3.15Q99.21 4.66 98.64 5.93 98.06 7.2 97.06 8.11 96.06 9.01 94.72 9.51 93.37 10.01 91.86 10.01L91.86 10.01 90.62 10.01Q89.1 10.01 87.76 9.51 86.42 9.01 85.41 8.11 84.41 7.2 83.84 5.93 83.27 4.66 83.27 3.15L83.27 3.15 83.27 3.05Q83.27 1.59 83.8 0.37 84.34-0.85 85.27-1.76L85.27-1.76Q84.1-2.47 83.4-3.67 82.7-4.88 82.7-6.35L82.7-6.35Q82.7-7.67 83.27-8.8 83.83-9.94 84.8-10.64L84.8-10.64Q83.63-11.67 82.95-13.11 82.27-14.55 82.27-16.26L82.27-16.26 82.27-18.14Q82.27-19.65 82.84-21 83.41-22.34 84.41-23.34 85.41-24.34 86.76-24.91 88.1-25.49 89.61-25.49L89.61-25.49 90.86-25.49Q92.69-25.49 94.24-24.67 95.79-23.85 96.82-22.46L96.82-22.46 98.45-25 99.45-25 99.45-16.26Q99.45-14.75 98.88-13.4 98.31-12.06 97.3-11.06 96.3-10.06 94.96-9.48 93.62-8.91 92.1-8.91L92.1-8.91 87.76-8.91Q87.25-8.91 86.78-8.7 86.32-8.5 85.96-8.15 85.61-7.81 85.41-7.34 85.22-6.86 85.22-6.35L85.22-6.35Q85.22-5.83 85.41-5.37 85.61-4.91 85.96-4.55 86.32-4.2 86.78-4 87.25-3.81 87.76-3.81L87.76-3.81 91.86-3.81Q93.37-3.81 94.72-3.31 96.06-2.81 97.06-1.9 98.06-1 98.64 0.27 99.21 1.54 99.21 3.05L99.21 3.05 99.21 3.15ZM96.47-16.09L96.47-18.31Q96.47-19.21 96.13-20.01 95.79-20.8 95.19-21.39 94.59-21.97 93.8-22.31 93.01-22.66 92.1-22.66L92.1-22.66 89.61-22.66Q88.71-22.66 87.92-22.31 87.12-21.97 86.54-21.39 85.95-20.8 85.61-20.01 85.27-19.21 85.27-18.31L85.27-18.31 85.27-16.09Q85.27-15.19 85.61-14.39 85.95-13.6 86.54-13.01 87.12-12.43 87.92-12.08 88.71-11.74 89.61-11.74L89.61-11.74 92.1-11.74Q93.01-11.74 93.8-12.08 94.59-12.43 95.19-13.01 95.79-13.6 96.13-14.39 96.47-15.19 96.47-16.09L96.47-16.09ZM96.35 3.3L96.35 2.91Q96.35 2 96.01 1.28 95.67 0.56 95.08 0.07 94.5-0.42 93.7-0.68 92.91-0.95 92.01-0.95L92.01-0.95 90.47-0.95Q89.57-0.95 88.77-0.68 87.98-0.42 87.39 0.07 86.81 0.56 86.46 1.28 86.12 2 86.12 2.91L86.12 2.91 86.12 3.3Q86.12 4.2 86.46 4.91 86.81 5.62 87.39 6.12 87.98 6.62 88.77 6.88 89.57 7.15 90.47 7.15L90.47 7.15 92.01 7.15Q92.91 7.15 93.7 6.88 94.5 6.62 95.08 6.12 95.67 5.62 96.01 4.91 96.35 4.2 96.35 3.3L96.35 3.3ZM121.67 0L118.66 0 118.66-18.31Q118.66-19.21 118.32-20.01 117.98-20.8 117.39-21.39 116.81-21.97 116.02-22.31 115.22-22.66 114.32-22.66L114.32-22.66 112.32-22.66Q111.41-22.66 110.62-22.31 109.83-21.97 109.24-21.39 108.65-20.8 108.31-20.01 107.97-19.21 107.97-18.31L107.97-18.31 107.97 0 104.97 0 104.97-25 105.97-25 107.6-22.46Q108.63-23.85 110.18-24.67 111.73-25.49 113.56-25.49L113.56-25.49 114.32-25.49Q115.83-25.49 117.18-24.91 118.52-24.34 119.52-23.34 120.52-22.34 121.09-21 121.67-19.65 121.67-18.14L121.67-18.14 121.67 0ZM131.92-31.01L128.43-31.01 128.43-35.01 131.92-35.01 131.92-31.01ZM131.67 0L128.67 0 128.67-25 131.67-25 131.67 0ZM150.52 0L147.79 0Q146.42 0 145.21-0.51 144-1.03 143.11-1.93 142.22-2.83 141.69-4.03 141.17-5.22 141.17-6.59L141.17-6.59 141.17-22.14 136.68-22.14 136.68-25 141.17-25 141.17-31.01 144.17-31.49 144.17-25 150.52-25 150.52-22.14 144.17-22.14 144.17-6.45Q144.17-5.69 144.45-5.04 144.73-4.39 145.22-3.91 145.71-3.42 146.37-3.14 147.03-2.86 147.79-2.86L147.79-2.86 150.52-2.86 150.52 0ZM173.08 0L156.52 0 156.52-35.01 159.67-35.01 159.67-3 173.08-3 173.08 0ZM193.78 0L192.78 0 191.12-2.49Q190.09-1.15 188.55-0.33 187.01 0.49 185.18 0.49L185.18 0.49 184.43 0.49Q182.91 0.49 181.57-0.09 180.23-0.66 179.23-1.66 178.22-2.66 177.65-4 177.08-5.35 177.08-6.86L177.08-6.86 177.08-7.1Q177.08-8.62 177.65-9.96 178.22-11.3 179.23-12.3 180.23-13.31 181.57-13.88 182.91-14.45 184.43-14.45L184.43-14.45 190.77-14.45 190.77-18.31Q190.77-19.21 190.43-20.01 190.09-20.8 189.5-21.39 188.92-21.97 188.12-22.31 187.33-22.66 186.43-22.66L186.43-22.66 184.67-22.66Q183.77-22.66 182.97-22.31 182.18-21.97 181.59-21.39 181.01-20.8 180.67-20.01 180.32-19.21 180.32-18.31L180.32-18.31 180.32-17.41 177.32-17.9 177.32-18.14Q177.32-19.65 177.89-21 178.47-22.34 179.47-23.34 180.47-24.34 181.81-24.91 183.16-25.49 184.67-25.49L184.67-25.49 186.43-25.49Q187.94-25.49 189.28-24.91 190.63-24.34 191.63-23.34 192.63-22.34 193.2-21 193.78-19.65 193.78-18.14L193.78-18.14 193.78 0ZM190.77-6.69L190.77-12.11 184.43-12.11Q183.52-12.11 182.73-11.77 181.94-11.43 181.35-10.83 180.76-10.23 180.42-9.44 180.08-8.64 180.08-7.74L180.08-7.74 180.08-6.69Q180.08-5.79 180.42-4.99 180.76-4.2 181.35-3.61 181.94-3.03 182.73-2.69 183.52-2.34 184.43-2.34L184.43-2.34 186.43-2.34Q187.33-2.34 188.12-2.69 188.92-3.03 189.5-3.61 190.09-4.2 190.43-4.99 190.77-5.79 190.77-6.69L190.77-6.69ZM216.48-6.86L216.48-6.86Q216.48-5.35 215.91-4 215.33-2.66 214.33-1.66 213.33-0.66 211.99-0.09 210.64 0.49 209.13 0.49L209.13 0.49 207.13 0.49Q205.61 0.49 204.27-0.09 202.93-0.66 201.93-1.66 200.93-2.66 200.35-4 199.78-5.35 199.78-6.86L199.78-6.86 199.78-35.01 202.78-35.01 202.78-22.9Q203.81-24.12 205.25-24.8 206.69-25.49 208.37-25.49L208.37-25.49 209.13-25.49Q210.64-25.49 211.99-24.91 213.33-24.34 214.33-23.34 215.33-22.34 215.91-21 216.48-19.65 216.48-18.14L216.48-18.14 216.48-6.86ZM213.48-6.69L213.48-18.31Q213.48-19.21 213.13-20.01 212.79-20.8 212.21-21.39 211.62-21.97 210.83-22.31 210.03-22.66 209.13-22.66L209.13-22.66 207.13-22.66Q206.23-22.66 205.43-22.31 204.64-21.97 204.05-21.39 203.47-20.8 203.12-20.01 202.78-19.21 202.78-18.31L202.78-18.31 202.78-6.69Q202.78-5.79 203.12-4.99 203.47-4.2 204.05-3.61 204.64-3.03 205.43-2.69 206.23-2.34 207.13-2.34L207.13-2.34 209.13-2.34Q210.03-2.34 210.83-2.69 211.62-3.03 212.21-3.61 212.79-4.2 213.13-4.99 213.48-5.79 213.48-6.69L213.48-6.69ZM239.67-6.35L239.67-6.35Q239.67-4.83 239.06-3.58 238.45-2.32 237.4-1.42 236.35-0.51 234.97-0.01 233.59 0.49 232.08 0.49L232.08 0.49 230.08 0.49Q228.56 0.49 227.18-0.09 225.8-0.66 224.76-1.66 223.73-2.66 223.1-4 222.48-5.35 222.48-6.86L222.48-6.86 222.48-7.86 225.49-8.35 225.49-6.69Q225.49-5.79 225.86-4.99 226.24-4.2 226.88-3.61 227.51-3.03 228.34-2.69 229.17-2.34 230.08-2.34L230.08-2.34 232.08-2.34Q232.98-2.34 233.81-2.61 234.64-2.88 235.29-3.38 235.93-3.88 236.31-4.59 236.69-5.3 236.69-6.2L236.69-6.2Q236.69-7.54 236.11-8.4 235.52-9.25 234.56-9.83 233.59-10.4 232.36-10.78 231.12-11.16 229.83-11.54 228.54-11.91 227.3-12.4 226.07-12.89 225.11-13.68 224.14-14.48 223.56-15.67 222.97-16.87 222.97-18.65L222.97-18.65Q222.97-20.17 223.56-21.42 224.14-22.68 225.14-23.58 226.14-24.49 227.47-24.99 228.81-25.49 230.32-25.49L230.32-25.49 232.08-25.49Q233.59-25.49 234.93-24.91 236.28-24.34 237.28-23.34 238.28-22.34 238.85-21 239.43-19.65 239.43-18.14L239.43-18.14 239.43-18.04 236.42-17.55 236.42-18.31Q236.42-19.21 236.08-20.01 235.74-20.8 235.15-21.39 234.57-21.97 233.77-22.31 232.98-22.66 232.08-22.66L232.08-22.66 230.32-22.66Q229.42-22.66 228.62-22.39 227.83-22.12 227.24-21.62 226.66-21.12 226.32-20.41 225.97-19.7 225.97-18.8L225.97-18.8Q225.97-17.5 226.56-16.69 227.15-15.87 228.11-15.31 229.07-14.75 230.31-14.37 231.54-13.99 232.82-13.59 234.1-13.18 235.34-12.67 236.57-12.16 237.53-11.35 238.5-10.55 239.08-9.34 239.67-8.13 239.67-6.35Z" opacity="1" transform="matrix(1,0,0,1,0,0)" fill="white" class="wordmark-text-0" id="SvgjsPath5163"></path></svg></g></svg></g></svg></g></svg></g><g transform="matrix(1,0,0,1,68.10249562239173,0)"><svg viewBox="0 0 94.19500875521653 60.81968129272841" height="60.81968129272841" width="94.19500875521653"><g><svg xmlns="http://www.w3.org/2000/svg" xmlns:xlink="http://www.w3.org/1999/xlink" version="1.1" x="8" y="0" viewBox="5.000504273397457 14.999240821291442 89.99899145320506 70.00075917870856" style="enable-background:new 0 0 100 100;" xml:space="preserve" height="60.81968129272841" width="78.19500875521653" class="icon-icon-0" data-fill-palette-color="accent" id="SvgjsSvg5162"><path d="M44.967 70.646A5.598 5.598 0 0 1 55.033 70.646C55.375 78.616 61.947 85 70 85 78.271 85 85 78.271 85 70S78.271 55 70 55C63.702 55 58.309 58.906 56.089 64.418A10.6 10.6 0 0 0 50 62.5C47.766 62.5 45.658 63.197 43.911 64.418 41.691 58.906 36.298 55 30 55 21.729 55 15 61.729 15 70S21.729 85 30 85C38.053 85 44.625 78.616 44.967 70.646M70 60C75.514 60 80 64.486 80 70S75.514 80 70 80C64.491 80 60.008 75.521 60.001 70.013V70.012L60 70C60 64.486 64.486 60 70 60M20 70C20 64.486 24.486 60 30 60S40 64.486 40 70L39.999 70.011V70.012C39.992 75.521 35.509 80 30 80 24.486 80 20 75.514 20 70" fill="black"></path><path d="M7.5 50H92.5A2.5 2.5 0 0 0 94.856 48.334 2.5 2.5 0 0 0 94.073 45.557C89.195 41.608 83.638 38.364 77.117 35.661L72.426 16.893A2.504 2.504 0 0 0 69.382 15.077 78.7 78.7 0 0 1 30.618 15.077 2.5 2.5 0 0 0 28.719 15.352 2.5 2.5 0 0 0 27.574 16.893L22.883 35.661C16.362 38.364 10.805 41.608 5.927 45.557A2.5 2.5 0 0 0 5.144 48.334 2.5 2.5 0 0 0 7.5 50M31.825 20.506A83.8 83.8 0 0 0 68.175 20.506L71.798 35H28.202zM25.501 40H74.498C78.175 41.485 81.528 43.138 84.596 45H15.403C18.472 43.138 21.824 41.485 25.501 40" fill="black"></path></svg></g></svg></g><g><rect width="68.10249562239173" height="3.968727659109509" y="55.8509536336189" x="162.29750437760828" fill="black"></rect><rect width="68.10249562239173" height="3.968727659109509" y="55.8509536336189" x="0" fill="black"></rect><rect width="68.10249562239173" height="3.968727659109509" y="47.913498315399885" x="162.29750437760828" fill="black"></rect><rect width="68.10249562239173" height="3.968727659109509" y="47.913498315399885" x="0" fill="black"></rect></g></svg></g></svg></g></svg></g><defs><mask></mask></defs></svg><rect width="576" height="360" fill="black" stroke="none" visibility="hidden"></rect></g></mask><linearGradient x1="0" x2="1" y1="0.548" y2="0.55" id="d786f602-b860-4a11-b83c-cb6ebe558262"><stop stop-color="#ff6cab" offset="0"></stop><stop stop-color="#7366ff" offset="1"></stop></linearGradient><rect width="576" height="360" fill="url(#d786f602-b860-4a11-b83c-cb6ebe558262)" mask="url(#f3a83910-30ac-4a28-8c86-d6b1aa21813b)" data-fill-palette-color="primary"></rect><mask id="831e3c60-09a6-461b-9d5c-aaa4907bd844"><g id="SvgjsG5185"><svg viewBox="0 0 576 360" height="360" width="576"><g><svg></svg></g><g><svg viewBox="0 0 576 360" height="360" width="576"><g><path d="M132.115 90l155.885-90 155.885 90v180l-155.885 90-155.885-90zM136.084 267.709l151.916 87.708 151.916-87.708v-175.418l-151.916-87.708-151.916 87.708z" fill="black" fill-rule="nonzero" stroke="none" stroke-width="1" stroke-linecap="butt" stroke-linejoin="miter" stroke-miterlimit="10" stroke-dasharray="" stroke-dashoffset="0" font-family="none" font-weight="none" font-size="none" text-anchor="none" style="mix-blend-mode: normal"></path></g><g transform="matrix(1,0,0,1,172.8,122.39126341528899)"><svg viewBox="0 0 230.4 115.21747316942202" height="115.21747316942202" width="230.4"><g><svg viewBox="0 0 230.4 115.21747316942202" height="115.21747316942202" width="230.4"><g transform="matrix(1,0,0,1,0,71.20902071448106)"><svg viewBox="0 0 230.4 44.00845245494096" height="44.00845245494096" width="230.4"><g id="SvgjsG5184"><svg viewBox="0 0 230.4 44.00845245494096" height="44.00845245494096" width="230.4" id="SvgjsSvg5183"><g><svg viewBox="0 0 230.4 44.00845245494096" height="44.00845245494096" width="230.4"><g transform="matrix(1,0,0,1,0,0)"><svg width="230.4" viewBox="4 -35.01 235.67 45.019999999999996" height="44.00845245494096" data-palette-color="url(#d786f602-b860-4a11-b83c-cb6ebe558262)"></svg></g></svg></g></svg></g></svg></g><g transform="matrix(1,0,0,1,68.10249562239173,0)"><svg viewBox="0 0 94.19500875521653 60.81968129272841" height="60.81968129272841" width="94.19500875521653"><g><svg xmlns="http://www.w3.org/2000/svg" xmlns:xlink="http://www.w3.org/1999/xlink" version="1.1" x="8" y="0" viewBox="5.000504273397457 14.999240821291442 89.99899145320506 70.00075917870856" style="enable-background:new 0 0 100 100;" xml:space="preserve" height="60.81968129272841" width="78.19500875521653" class="icon-icon-0" data-fill-palette-color="accent" id="SvgjsSvg5182"><path d="M44.967 70.646A5.598 5.598 0 0 1 55.033 70.646C55.375 78.616 61.947 85 70 85 78.271 85 85 78.271 85 70S78.271 55 70 55C63.702 55 58.309 58.906 56.089 64.418A10.6 10.6 0 0 0 50 62.5C47.766 62.5 45.658 63.197 43.911 64.418 41.691 58.906 36.298 55 30 55 21.729 55 15 61.729 15 70S21.729 85 30 85C38.053 85 44.625 78.616 44.967 70.646M70 60C75.514 60 80 64.486 80 70S75.514 80 70 80C64.491 80 60.008 75.521 60.001 70.013V70.012L60 70C60 64.486 64.486 60 70 60M20 70C20 64.486 24.486 60 30 60S40 64.486 40 70L39.999 70.011V70.012C39.992 75.521 35.509 80 30 80 24.486 80 20 75.514 20 70" fill="white"></path><path d="M7.5 50H92.5A2.5 2.5 0 0 0 94.856 48.334 2.5 2.5 0 0 0 94.073 45.557C89.195 41.608 83.638 38.364 77.117 35.661L72.426 16.893A2.504 2.504 0 0 0 69.382 15.077 78.7 78.7 0 0 1 30.618 15.077 2.5 2.5 0 0 0 28.719 15.352 2.5 2.5 0 0 0 27.574 16.893L22.883 35.661C16.362 38.364 10.805 41.608 5.927 45.557A2.5 2.5 0 0 0 5.144 48.334 2.5 2.5 0 0 0 7.5 50M31.825 20.506A83.8 83.8 0 0 0 68.175 20.506L71.798 35H28.202zM25.501 40H74.498C78.175 41.485 81.528 43.138 84.596 45H15.403C18.472 43.138 21.824 41.485 25.501 40" fill="white"></path></svg></g></svg></g><g><rect width="68.10249562239173" height="3.968727659109509" y="55.8509536336189" x="162.29750437760828" fill="white"></rect><rect width="68.10249562239173" height="3.968727659109509" y="55.8509536336189" x="0" fill="white"></rect><rect width="68.10249562239173" height="3.968727659109509" y="47.913498315399885" x="162.29750437760828" fill="white"></rect><rect width="68.10249562239173" height="3.968727659109509" y="47.913498315399885" x="0" fill="white"></rect></g></svg></g></svg></g></svg></g><defs><mask></mask></defs><mask><g id="SvgjsG5181"><svg viewBox="0 0 576 360" height="360" width="576"><g><svg></svg></g><g><svg viewBox="0 0 576 360" height="360" width="576"><g><path d="M132.115 90l155.885-90 155.885 90v180l-155.885 90-155.885-90zM136.084 267.709l151.916 87.708 151.916-87.708v-175.418l-151.916-87.708-151.916 87.708z" fill="black" fill-rule="nonzero" stroke="none" stroke-width="1" stroke-linecap="butt" stroke-linejoin="miter" stroke-miterlimit="10" stroke-dasharray="" stroke-dashoffset="0" font-family="none" font-weight="none" font-size="none" text-anchor="none" style="mix-blend-mode: normal"></path></g><g transform="matrix(1,0,0,1,172.8,122.39126341528899)"><svg viewBox="0 0 230.4 115.21747316942202" height="115.21747316942202" width="230.4"><g><svg viewBox="0 0 230.4 115.21747316942202" height="115.21747316942202" width="230.4"><g transform="matrix(1,0,0,1,0,71.20902071448106)"><svg viewBox="0 0 230.4 44.00845245494096" height="44.00845245494096" width="230.4"><g id="SvgjsG5180"><svg viewBox="0 0 230.4 44.00845245494096" height="44.00845245494096" width="230.4" id="SvgjsSvg5179"><g><svg viewBox="0 0 230.4 44.00845245494096" height="44.00845245494096" width="230.4"><g transform="matrix(1,0,0,1,0,0)"><svg width="230.4" viewBox="4 -35.01 235.67 45.019999999999996" height="44.00845245494096" data-palette-color="url(#d786f602-b860-4a11-b83c-cb6ebe558262)"><path d="M7.15 0L4 0 4-35.01 7.15-35.01 7.15 0ZM30.86 0L27.85 0 27.85-18.31Q27.85-19.21 27.51-20.01 27.17-20.8 26.58-21.39 26-21.97 25.21-22.31 24.41-22.66 23.51-22.66L23.51-22.66 21.51-22.66Q20.6-22.66 19.81-22.31 19.02-21.97 18.43-21.39 17.84-20.8 17.5-20.01 17.16-19.21 17.16-18.31L17.16-18.31 17.16 0 14.16 0 14.16-25 15.16-25 16.79-22.46Q17.82-23.85 19.37-24.67 20.92-25.49 22.75-25.49L22.75-25.49 23.51-25.49Q25.02-25.49 26.36-24.91 27.71-24.34 28.71-23.34 29.71-22.34 30.28-21 30.86-19.65 30.86-18.14L30.86-18.14 30.86 0ZM53.56-6.86L53.56-6.86Q53.56-5.35 52.99-4 52.41-2.66 51.41-1.66 50.41-0.66 49.07-0.09 47.72 0.49 46.21 0.49L46.21 0.49 44.21 0.49Q42.7 0.49 41.35-0.09 40.01-0.66 39.01-1.66 38.01-2.66 37.43-4 36.86-5.35 36.86-6.86L36.86-6.86 36.86-18.14Q36.86-19.65 37.43-21 38.01-22.34 39.01-23.34 40.01-24.34 41.35-24.91 42.7-25.49 44.21-25.49L44.21-25.49 46.21-25.49Q47.72-25.49 49.07-24.91 50.41-24.34 51.41-23.34 52.41-22.34 52.99-21 53.56-19.65 53.56-18.14L53.56-18.14 53.56-17.14 50.56-16.65 50.56-18.31Q50.56-19.21 50.21-20.01 49.87-20.8 49.29-21.39 48.7-21.97 47.91-22.31 47.11-22.66 46.21-22.66L46.21-22.66 44.21-22.66Q43.31-22.66 42.51-22.31 41.72-21.97 41.13-21.39 40.55-20.8 40.2-20.01 39.86-19.21 39.86-18.31L39.86-18.31 39.86-6.69Q39.86-5.79 40.2-4.99 40.55-4.2 41.13-3.61 41.72-3.03 42.51-2.69 43.31-2.34 44.21-2.34L44.21-2.34 46.21-2.34Q47.11-2.34 47.91-2.69 48.7-3.03 49.29-3.61 49.87-4.2 50.21-4.99 50.56-5.79 50.56-6.69L50.56-6.69 50.56-8.35 53.56-7.86 53.56-6.86ZM76.26-6.86L76.26-6.86Q76.26-5.35 75.69-4 75.11-2.66 74.11-1.66 73.11-0.66 71.77-0.09 70.43 0.49 68.91 0.49L68.91 0.49 66.91 0.49Q65.4 0.49 64.06-0.09 62.71-0.66 61.71-1.66 60.71-2.66 60.14-4 59.56-5.35 59.56-6.86L59.56-6.86 59.56-18.14Q59.56-19.65 60.14-21 60.71-22.34 61.71-23.34 62.71-24.34 64.06-24.91 65.4-25.49 66.91-25.49L66.91-25.49 68.91-25.49Q70.43-25.49 71.77-24.91 73.11-24.34 74.11-23.34 75.11-22.34 75.69-21 76.26-19.65 76.26-18.14L76.26-18.14 76.26-6.86ZM73.26-6.69L73.26-18.31Q73.26-19.21 72.92-20.01 72.58-20.8 71.99-21.39 71.4-21.97 70.61-22.31 69.82-22.66 68.91-22.66L68.91-22.66 66.91-22.66Q66.01-22.66 65.21-22.31 64.42-21.97 63.84-21.39 63.25-20.8 62.91-20.01 62.57-19.21 62.57-18.31L62.57-18.31 62.57-6.69Q62.57-5.79 62.91-4.99 63.25-4.2 63.84-3.61 64.42-3.03 65.21-2.69 66.01-2.34 66.91-2.34L66.91-2.34 68.91-2.34Q69.82-2.34 70.61-2.69 71.4-3.03 71.99-3.61 72.58-4.2 72.92-4.99 73.26-5.79 73.26-6.69L73.26-6.69ZM99.21 3.15L99.21 3.15Q99.21 4.66 98.64 5.93 98.06 7.2 97.06 8.11 96.06 9.01 94.72 9.51 93.37 10.01 91.86 10.01L91.86 10.01 90.62 10.01Q89.1 10.01 87.76 9.51 86.42 9.01 85.41 8.11 84.41 7.2 83.84 5.93 83.27 4.66 83.27 3.15L83.27 3.15 83.27 3.05Q83.27 1.59 83.8 0.37 84.34-0.85 85.27-1.76L85.27-1.76Q84.1-2.47 83.4-3.67 82.7-4.88 82.7-6.35L82.7-6.35Q82.7-7.67 83.27-8.8 83.83-9.94 84.8-10.64L84.8-10.64Q83.63-11.67 82.95-13.11 82.27-14.55 82.27-16.26L82.27-16.26 82.27-18.14Q82.27-19.65 82.84-21 83.41-22.34 84.41-23.34 85.41-24.34 86.76-24.91 88.1-25.49 89.61-25.49L89.61-25.49 90.86-25.49Q92.69-25.49 94.24-24.67 95.79-23.85 96.82-22.46L96.82-22.46 98.45-25 99.45-25 99.45-16.26Q99.45-14.75 98.88-13.4 98.31-12.06 97.3-11.06 96.3-10.06 94.96-9.48 93.62-8.91 92.1-8.91L92.1-8.91 87.76-8.91Q87.25-8.91 86.78-8.7 86.32-8.5 85.96-8.15 85.61-7.81 85.41-7.34 85.22-6.86 85.22-6.35L85.22-6.35Q85.22-5.83 85.41-5.37 85.61-4.91 85.96-4.55 86.32-4.2 86.78-4 87.25-3.81 87.76-3.81L87.76-3.81 91.86-3.81Q93.37-3.81 94.72-3.31 96.06-2.81 97.06-1.9 98.06-1 98.64 0.27 99.21 1.54 99.21 3.05L99.21 3.05 99.21 3.15ZM96.47-16.09L96.47-18.31Q96.47-19.21 96.13-20.01 95.79-20.8 95.19-21.39 94.59-21.97 93.8-22.31 93.01-22.66 92.1-22.66L92.1-22.66 89.61-22.66Q88.71-22.66 87.92-22.31 87.12-21.97 86.54-21.39 85.95-20.8 85.61-20.01 85.27-19.21 85.27-18.31L85.27-18.31 85.27-16.09Q85.27-15.19 85.61-14.39 85.95-13.6 86.54-13.01 87.12-12.43 87.92-12.08 88.71-11.74 89.61-11.74L89.61-11.74 92.1-11.74Q93.01-11.74 93.8-12.08 94.59-12.43 95.19-13.01 95.79-13.6 96.13-14.39 96.47-15.19 96.47-16.09L96.47-16.09ZM96.35 3.3L96.35 2.91Q96.35 2 96.01 1.28 95.67 0.56 95.08 0.07 94.5-0.42 93.7-0.68 92.91-0.95 92.01-0.95L92.01-0.95 90.47-0.95Q89.57-0.95 88.77-0.68 87.98-0.42 87.39 0.07 86.81 0.56 86.46 1.28 86.12 2 86.12 2.91L86.12 2.91 86.12 3.3Q86.12 4.2 86.46 4.91 86.81 5.62 87.39 6.12 87.98 6.62 88.77 6.88 89.57 7.15 90.47 7.15L90.47 7.15 92.01 7.15Q92.91 7.15 93.7 6.88 94.5 6.62 95.08 6.12 95.67 5.62 96.01 4.91 96.35 4.2 96.35 3.3L96.35 3.3ZM121.67 0L118.66 0 118.66-18.31Q118.66-19.21 118.32-20.01 117.98-20.8 117.39-21.39 116.81-21.97 116.02-22.31 115.22-22.66 114.32-22.66L114.32-22.66 112.32-22.66Q111.41-22.66 110.62-22.31 109.83-21.97 109.24-21.39 108.65-20.8 108.31-20.01 107.97-19.21 107.97-18.31L107.97-18.31 107.97 0 104.97 0 104.97-25 105.97-25 107.6-22.46Q108.63-23.85 110.18-24.67 111.73-25.49 113.56-25.49L113.56-25.49 114.32-25.49Q115.83-25.49 117.18-24.91 118.52-24.34 119.52-23.34 120.52-22.34 121.09-21 121.67-19.65 121.67-18.14L121.67-18.14 121.67 0ZM131.92-31.01L128.43-31.01 128.43-35.01 131.92-35.01 131.92-31.01ZM131.67 0L128.67 0 128.67-25 131.67-25 131.67 0ZM150.52 0L147.79 0Q146.42 0 145.21-0.51 144-1.03 143.11-1.93 142.22-2.83 141.69-4.03 141.17-5.22 141.17-6.59L141.17-6.59 141.17-22.14 136.68-22.14 136.68-25 141.17-25 141.17-31.01 144.17-31.49 144.17-25 150.52-25 150.52-22.14 144.17-22.14 144.17-6.45Q144.17-5.69 144.45-5.04 144.73-4.39 145.22-3.91 145.71-3.42 146.37-3.14 147.03-2.86 147.79-2.86L147.79-2.86 150.52-2.86 150.52 0ZM173.08 0L156.52 0 156.52-35.01 159.67-35.01 159.67-3 173.08-3 173.08 0ZM193.78 0L192.78 0 191.12-2.49Q190.09-1.15 188.55-0.33 187.01 0.49 185.18 0.49L185.18 0.49 184.43 0.49Q182.91 0.49 181.57-0.09 180.23-0.66 179.23-1.66 178.22-2.66 177.65-4 177.08-5.35 177.08-6.86L177.08-6.86 177.08-7.1Q177.08-8.62 177.65-9.96 178.22-11.3 179.23-12.3 180.23-13.31 181.57-13.88 182.91-14.45 184.43-14.45L184.43-14.45 190.77-14.45 190.77-18.31Q190.77-19.21 190.43-20.01 190.09-20.8 189.5-21.39 188.92-21.97 188.12-22.31 187.33-22.66 186.43-22.66L186.43-22.66 184.67-22.66Q183.77-22.66 182.97-22.31 182.18-21.97 181.59-21.39 181.01-20.8 180.67-20.01 180.32-19.21 180.32-18.31L180.32-18.31 180.32-17.41 177.32-17.9 177.32-18.14Q177.32-19.65 177.89-21 178.47-22.34 179.47-23.34 180.47-24.34 181.81-24.91 183.16-25.49 184.67-25.49L184.67-25.49 186.43-25.49Q187.94-25.49 189.28-24.91 190.63-24.34 191.63-23.34 192.63-22.34 193.2-21 193.78-19.65 193.78-18.14L193.78-18.14 193.78 0ZM190.77-6.69L190.77-12.11 184.43-12.11Q183.52-12.11 182.73-11.77 181.94-11.43 181.35-10.83 180.76-10.23 180.42-9.44 180.08-8.64 180.08-7.74L180.08-7.74 180.08-6.69Q180.08-5.79 180.42-4.99 180.76-4.2 181.35-3.61 181.94-3.03 182.73-2.69 183.52-2.34 184.43-2.34L184.43-2.34 186.43-2.34Q187.33-2.34 188.12-2.69 188.92-3.03 189.5-3.61 190.09-4.2 190.43-4.99 190.77-5.79 190.77-6.69L190.77-6.69ZM216.48-6.86L216.48-6.86Q216.48-5.35 215.91-4 215.33-2.66 214.33-1.66 213.33-0.66 211.99-0.09 210.64 0.49 209.13 0.49L209.13 0.49 207.13 0.49Q205.61 0.49 204.27-0.09 202.93-0.66 201.93-1.66 200.93-2.66 200.35-4 199.78-5.35 199.78-6.86L199.78-6.86 199.78-35.01 202.78-35.01 202.78-22.9Q203.81-24.12 205.25-24.8 206.69-25.49 208.37-25.49L208.37-25.49 209.13-25.49Q210.64-25.49 211.99-24.91 213.33-24.34 214.33-23.34 215.33-22.34 215.91-21 216.48-19.65 216.48-18.14L216.48-18.14 216.48-6.86ZM213.48-6.69L213.48-18.31Q213.48-19.21 213.13-20.01 212.79-20.8 212.21-21.39 211.62-21.97 210.83-22.31 210.03-22.66 209.13-22.66L209.13-22.66 207.13-22.66Q206.23-22.66 205.43-22.31 204.64-21.97 204.05-21.39 203.47-20.8 203.12-20.01 202.78-19.21 202.78-18.31L202.78-18.31 202.78-6.69Q202.78-5.79 203.12-4.99 203.47-4.2 204.05-3.61 204.64-3.03 205.43-2.69 206.23-2.34 207.13-2.34L207.13-2.34 209.13-2.34Q210.03-2.34 210.83-2.69 211.62-3.03 212.21-3.61 212.79-4.2 213.13-4.99 213.48-5.79 213.48-6.69L213.48-6.69ZM239.67-6.35L239.67-6.35Q239.67-4.83 239.06-3.58 238.45-2.32 237.4-1.42 236.35-0.51 234.97-0.01 233.59 0.49 232.08 0.49L232.08 0.49 230.08 0.49Q228.56 0.49 227.18-0.09 225.8-0.66 224.76-1.66 223.73-2.66 223.1-4 222.48-5.35 222.48-6.86L222.48-6.86 222.48-7.86 225.49-8.35 225.49-6.69Q225.49-5.79 225.86-4.99 226.24-4.2 226.88-3.61 227.51-3.03 228.34-2.69 229.17-2.34 230.08-2.34L230.08-2.34 232.08-2.34Q232.98-2.34 233.81-2.61 234.64-2.88 235.29-3.38 235.93-3.88 236.31-4.59 236.69-5.3 236.69-6.2L236.69-6.2Q236.69-7.54 236.11-8.4 235.52-9.25 234.56-9.83 233.59-10.4 232.36-10.78 231.12-11.16 229.83-11.54 228.54-11.91 227.3-12.4 226.07-12.89 225.11-13.68 224.14-14.48 223.56-15.67 222.97-16.87 222.97-18.65L222.97-18.65Q222.97-20.17 223.56-21.42 224.14-22.68 225.14-23.58 226.14-24.49 227.47-24.99 228.81-25.49 230.32-25.49L230.32-25.49 232.08-25.49Q233.59-25.49 234.93-24.91 236.28-24.34 237.28-23.34 238.28-22.34 238.85-21 239.43-19.65 239.43-18.14L239.43-18.14 239.43-18.04 236.42-17.55 236.42-18.31Q236.42-19.21 236.08-20.01 235.74-20.8 235.15-21.39 234.57-21.97 233.77-22.31 232.98-22.66 232.08-22.66L232.08-22.66 230.32-22.66Q229.42-22.66 228.62-22.39 227.83-22.12 227.24-21.62 226.66-21.12 226.32-20.41 225.97-19.7 225.97-18.8L225.97-18.8Q225.97-17.5 226.56-16.69 227.15-15.87 228.11-15.31 229.07-14.75 230.31-14.37 231.54-13.99 232.82-13.59 234.1-13.18 235.34-12.67 236.57-12.16 237.53-11.35 238.5-10.55 239.08-9.34 239.67-8.13 239.67-6.35Z" opacity="1" transform="matrix(1,0,0,1,0,0)" fill="black" class="wordmark-text-0" id="SvgjsPath5178"></path></svg></g></svg></g></svg></g></svg></g><g transform="matrix(1,0,0,1,68.10249562239173,0)"><svg viewBox="0 0 94.19500875521653 60.81968129272841" height="60.81968129272841" width="94.19500875521653"><g><svg xmlns="http://www.w3.org/2000/svg" xmlns:xlink="http://www.w3.org/1999/xlink" version="1.1" x="8" y="0" viewBox="5.000504273397457 14.999240821291442 89.99899145320506 70.00075917870856" style="enable-background:new 0 0 100 100;" xml:space="preserve" height="60.81968129272841" width="78.19500875521653" class="icon-icon-0" data-fill-palette-color="accent" id="SvgjsSvg5177"><path d="M44.967 70.646A5.598 5.598 0 0 1 55.033 70.646C55.375 78.616 61.947 85 70 85 78.271 85 85 78.271 85 70S78.271 55 70 55C63.702 55 58.309 58.906 56.089 64.418A10.6 10.6 0 0 0 50 62.5C47.766 62.5 45.658 63.197 43.911 64.418 41.691 58.906 36.298 55 30 55 21.729 55 15 61.729 15 70S21.729 85 30 85C38.053 85 44.625 78.616 44.967 70.646M70 60C75.514 60 80 64.486 80 70S75.514 80 70 80C64.491 80 60.008 75.521 60.001 70.013V70.012L60 70C60 64.486 64.486 60 70 60M20 70C20 64.486 24.486 60 30 60S40 64.486 40 70L39.999 70.011V70.012C39.992 75.521 35.509 80 30 80 24.486 80 20 75.514 20 70" fill="black"></path><path d="M7.5 50H92.5A2.5 2.5 0 0 0 94.856 48.334 2.5 2.5 0 0 0 94.073 45.557C89.195 41.608 83.638 38.364 77.117 35.661L72.426 16.893A2.504 2.504 0 0 0 69.382 15.077 78.7 78.7 0 0 1 30.618 15.077 2.5 2.5 0 0 0 28.719 15.352 2.5 2.5 0 0 0 27.574 16.893L22.883 35.661C16.362 38.364 10.805 41.608 5.927 45.557A2.5 2.5 0 0 0 5.144 48.334 2.5 2.5 0 0 0 7.5 50M31.825 20.506A83.8 83.8 0 0 0 68.175 20.506L71.798 35H28.202zM25.501 40H74.498C78.175 41.485 81.528 43.138 84.596 45H15.403C18.472 43.138 21.824 41.485 25.501 40" fill="black"></path></svg></g></svg></g><g><rect width="68.10249562239173" height="3.968727659109509" y="55.8509536336189" x="162.29750437760828" fill="black"></rect><rect width="68.10249562239173" height="3.968727659109509" y="55.8509536336189" x="0" fill="black"></rect><rect width="68.10249562239173" height="3.968727659109509" y="47.913498315399885" x="162.29750437760828" fill="black"></rect><rect width="68.10249562239173" height="3.968727659109509" y="47.913498315399885" x="0" fill="black"></rect></g></svg></g></svg></g></svg></g><defs><mask></mask></defs></svg><rect width="576" height="360" fill="black" stroke="none" visibility="hidden"></rect></g></mask></svg><rect width="576" height="360" fill="black" stroke="none" visibility="hidden"></rect></g></mask><linearGradient x1="0" x2="1" y1="0.548" y2="0.55" id="e639f3f1-dd37-4a61-9e3b-19825e93176b"><stop stop-color="#ff6cab" offset="0"></stop><stop stop-color="#7366ff" offset="1"></stop></linearGradient><rect width="576" height="360" fill="url(#e639f3f1-dd37-4a61-9e3b-19825e93176b)" mask="url(#831e3c60-09a6-461b-9d5c-aaa4907bd844)" data-fill-palette-color="accent"></rect><mask id="5ac4670e-be4d-4438-a85b-29103b112def"><g id="SvgjsG5203"><svg viewBox="0 0 576 360" height="360" width="576"><g><svg></svg></g><g><svg viewBox="0 0 576 360" height="360" width="576"><g><path d="M132.115 90l155.885-90 155.885 90v180l-155.885 90-155.885-90zM136.084 267.709l151.916 87.708 151.916-87.708v-175.418l-151.916-87.708-151.916 87.708z" fill="white" fill-rule="nonzero" stroke="none" stroke-width="1" stroke-linecap="butt" stroke-linejoin="miter" stroke-miterlimit="10" stroke-dasharray="" stroke-dashoffset="0" font-family="none" font-weight="none" font-size="none" text-anchor="none" style="mix-blend-mode: normal"></path></g><g transform="matrix(1,0,0,1,172.8,122.39126341528899)"><svg viewBox="0 0 230.4 115.21747316942202" height="115.21747316942202" width="230.4"><g><svg viewBox="0 0 230.4 115.21747316942202" height="115.21747316942202" width="230.4"><g transform="matrix(1,0,0,1,0,71.20902071448106)"><svg viewBox="0 0 230.4 44.00845245494096" height="44.00845245494096" width="230.4"><g id="SvgjsG5202"><svg viewBox="0 0 230.4 44.00845245494096" height="44.00845245494096" width="230.4" id="SvgjsSvg5201"><g><svg viewBox="0 0 230.4 44.00845245494096" height="44.00845245494096" width="230.4"><g transform="matrix(1,0,0,1,0,0)"><svg width="230.4" viewBox="4 -35.01 235.67 45.019999999999996" height="44.00845245494096" data-palette-color="url(#d786f602-b860-4a11-b83c-cb6ebe558262)"></svg></g></svg></g></svg></g></svg></g><g transform="matrix(1,0,0,1,68.10249562239173,0)"><svg viewBox="0 0 94.19500875521653 60.81968129272841" height="60.81968129272841" width="94.19500875521653"><g><svg xmlns="http://www.w3.org/2000/svg" xmlns:xlink="http://www.w3.org/1999/xlink" version="1.1" x="8" y="0" viewBox="5.000504273397457 14.999240821291442 89.99899145320506 70.00075917870856" style="enable-background:new 0 0 100 100;" xml:space="preserve" height="60.81968129272841" width="78.19500875521653" class="icon-icon-0" data-fill-palette-color="accent" id="SvgjsSvg5200"></svg></g></svg></g><g></g></svg></g></svg></g></svg></g><defs><mask></mask></defs><mask><g id="SvgjsG5199"><svg viewBox="0 0 576 360" height="360" width="576"><g><svg></svg></g><g><svg viewBox="0 0 576 360" height="360" width="576"><g><path d="M132.115 90l155.885-90 155.885 90v180l-155.885 90-155.885-90zM136.084 267.709l151.916 87.708 151.916-87.708v-175.418l-151.916-87.708-151.916 87.708z" fill="black" fill-rule="nonzero" stroke="none" stroke-width="1" stroke-linecap="butt" stroke-linejoin="miter" stroke-miterlimit="10" stroke-dasharray="" stroke-dashoffset="0" font-family="none" font-weight="none" font-size="none" text-anchor="none" style="mix-blend-mode: normal"></path></g><g transform="matrix(1,0,0,1,172.8,122.39126341528899)"><svg viewBox="0 0 230.4 115.21747316942202" height="115.21747316942202" width="230.4"><g><svg viewBox="0 0 230.4 115.21747316942202" height="115.21747316942202" width="230.4"><g transform="matrix(1,0,0,1,0,71.20902071448106)"><svg viewBox="0 0 230.4 44.00845245494096" height="44.00845245494096" width="230.4"><g id="SvgjsG5198"><svg viewBox="0 0 230.4 44.00845245494096" height="44.00845245494096" width="230.4" id="SvgjsSvg5197"><g><svg viewBox="0 0 230.4 44.00845245494096" height="44.00845245494096" width="230.4"><g transform="matrix(1,0,0,1,0,0)"><svg width="230.4" viewBox="4 -35.01 235.67 45.019999999999996" height="44.00845245494096" data-palette-color="url(#d786f602-b860-4a11-b83c-cb6ebe558262)"><path d="M7.15 0L4 0 4-35.01 7.15-35.01 7.15 0ZM30.86 0L27.85 0 27.85-18.31Q27.85-19.21 27.51-20.01 27.17-20.8 26.58-21.39 26-21.97 25.21-22.31 24.41-22.66 23.51-22.66L23.51-22.66 21.51-22.66Q20.6-22.66 19.81-22.31 19.02-21.97 18.43-21.39 17.84-20.8 17.5-20.01 17.16-19.21 17.16-18.31L17.16-18.31 17.16 0 14.16 0 14.16-25 15.16-25 16.79-22.46Q17.82-23.85 19.37-24.67 20.92-25.49 22.75-25.49L22.75-25.49 23.51-25.49Q25.02-25.49 26.36-24.91 27.71-24.34 28.71-23.34 29.71-22.34 30.28-21 30.86-19.65 30.86-18.14L30.86-18.14 30.86 0ZM53.56-6.86L53.56-6.86Q53.56-5.35 52.99-4 52.41-2.66 51.41-1.66 50.41-0.66 49.07-0.09 47.72 0.49 46.21 0.49L46.21 0.49 44.21 0.49Q42.7 0.49 41.35-0.09 40.01-0.66 39.01-1.66 38.01-2.66 37.43-4 36.86-5.35 36.86-6.86L36.86-6.86 36.86-18.14Q36.86-19.65 37.43-21 38.01-22.34 39.01-23.34 40.01-24.34 41.35-24.91 42.7-25.49 44.21-25.49L44.21-25.49 46.21-25.49Q47.72-25.49 49.07-24.91 50.41-24.34 51.41-23.34 52.41-22.34 52.99-21 53.56-19.65 53.56-18.14L53.56-18.14 53.56-17.14 50.56-16.65 50.56-18.31Q50.56-19.21 50.21-20.01 49.87-20.8 49.29-21.39 48.7-21.97 47.91-22.31 47.11-22.66 46.21-22.66L46.21-22.66 44.21-22.66Q43.31-22.66 42.51-22.31 41.72-21.97 41.13-21.39 40.55-20.8 40.2-20.01 39.86-19.21 39.86-18.31L39.86-18.31 39.86-6.69Q39.86-5.79 40.2-4.99 40.55-4.2 41.13-3.61 41.72-3.03 42.51-2.69 43.31-2.34 44.21-2.34L44.21-2.34 46.21-2.34Q47.11-2.34 47.91-2.69 48.7-3.03 49.29-3.61 49.87-4.2 50.21-4.99 50.56-5.79 50.56-6.69L50.56-6.69 50.56-8.35 53.56-7.86 53.56-6.86ZM76.26-6.86L76.26-6.86Q76.26-5.35 75.69-4 75.11-2.66 74.11-1.66 73.11-0.66 71.77-0.09 70.43 0.49 68.91 0.49L68.91 0.49 66.91 0.49Q65.4 0.49 64.06-0.09 62.71-0.66 61.71-1.66 60.71-2.66 60.14-4 59.56-5.35 59.56-6.86L59.56-6.86 59.56-18.14Q59.56-19.65 60.14-21 60.71-22.34 61.71-23.34 62.71-24.34 64.06-24.91 65.4-25.49 66.91-25.49L66.91-25.49 68.91-25.49Q70.43-25.49 71.77-24.91 73.11-24.34 74.11-23.34 75.11-22.34 75.69-21 76.26-19.65 76.26-18.14L76.26-18.14 76.26-6.86ZM73.26-6.69L73.26-18.31Q73.26-19.21 72.92-20.01 72.58-20.8 71.99-21.39 71.4-21.97 70.61-22.31 69.82-22.66 68.91-22.66L68.91-22.66 66.91-22.66Q66.01-22.66 65.21-22.31 64.42-21.97 63.84-21.39 63.25-20.8 62.91-20.01 62.57-19.21 62.57-18.31L62.57-18.31 62.57-6.69Q62.57-5.79 62.91-4.99 63.25-4.2 63.84-3.61 64.42-3.03 65.21-2.69 66.01-2.34 66.91-2.34L66.91-2.34 68.91-2.34Q69.82-2.34 70.61-2.69 71.4-3.03 71.99-3.61 72.58-4.2 72.92-4.99 73.26-5.79 73.26-6.69L73.26-6.69ZM99.21 3.15L99.21 3.15Q99.21 4.66 98.64 5.93 98.06 7.2 97.06 8.11 96.06 9.01 94.72 9.51 93.37 10.01 91.86 10.01L91.86 10.01 90.62 10.01Q89.1 10.01 87.76 9.51 86.42 9.01 85.41 8.11 84.41 7.2 83.84 5.93 83.27 4.66 83.27 3.15L83.27 3.15 83.27 3.05Q83.27 1.59 83.8 0.37 84.34-0.85 85.27-1.76L85.27-1.76Q84.1-2.47 83.4-3.67 82.7-4.88 82.7-6.35L82.7-6.35Q82.7-7.67 83.27-8.8 83.83-9.94 84.8-10.64L84.8-10.64Q83.63-11.67 82.95-13.11 82.27-14.55 82.27-16.26L82.27-16.26 82.27-18.14Q82.27-19.65 82.84-21 83.41-22.34 84.41-23.34 85.41-24.34 86.76-24.91 88.1-25.49 89.61-25.49L89.61-25.49 90.86-25.49Q92.69-25.49 94.24-24.67 95.79-23.85 96.82-22.46L96.82-22.46 98.45-25 99.45-25 99.45-16.26Q99.45-14.75 98.88-13.4 98.31-12.06 97.3-11.06 96.3-10.06 94.96-9.48 93.62-8.91 92.1-8.91L92.1-8.91 87.76-8.91Q87.25-8.91 86.78-8.7 86.32-8.5 85.96-8.15 85.61-7.81 85.41-7.34 85.22-6.86 85.22-6.35L85.22-6.35Q85.22-5.83 85.41-5.37 85.61-4.91 85.96-4.55 86.32-4.2 86.78-4 87.25-3.81 87.76-3.81L87.76-3.81 91.86-3.81Q93.37-3.81 94.72-3.31 96.06-2.81 97.06-1.9 98.06-1 98.64 0.27 99.21 1.54 99.21 3.05L99.21 3.05 99.21 3.15ZM96.47-16.09L96.47-18.31Q96.47-19.21 96.13-20.01 95.79-20.8 95.19-21.39 94.59-21.97 93.8-22.31 93.01-22.66 92.1-22.66L92.1-22.66 89.61-22.66Q88.71-22.66 87.92-22.31 87.12-21.97 86.54-21.39 85.95-20.8 85.61-20.01 85.27-19.21 85.27-18.31L85.27-18.31 85.27-16.09Q85.27-15.19 85.61-14.39 85.95-13.6 86.54-13.01 87.12-12.43 87.92-12.08 88.71-11.74 89.61-11.74L89.61-11.74 92.1-11.74Q93.01-11.74 93.8-12.08 94.59-12.43 95.19-13.01 95.79-13.6 96.13-14.39 96.47-15.19 96.47-16.09L96.47-16.09ZM96.35 3.3L96.35 2.91Q96.35 2 96.01 1.28 95.67 0.56 95.08 0.07 94.5-0.42 93.7-0.68 92.91-0.95 92.01-0.95L92.01-0.95 90.47-0.95Q89.57-0.95 88.77-0.68 87.98-0.42 87.39 0.07 86.81 0.56 86.46 1.28 86.12 2 86.12 2.91L86.12 2.91 86.12 3.3Q86.12 4.2 86.46 4.91 86.81 5.62 87.39 6.12 87.98 6.62 88.77 6.88 89.57 7.15 90.47 7.15L90.47 7.15 92.01 7.15Q92.91 7.15 93.7 6.88 94.5 6.62 95.08 6.12 95.67 5.62 96.01 4.91 96.35 4.2 96.35 3.3L96.35 3.3ZM121.67 0L118.66 0 118.66-18.31Q118.66-19.21 118.32-20.01 117.98-20.8 117.39-21.39 116.81-21.97 116.02-22.31 115.22-22.66 114.32-22.66L114.32-22.66 112.32-22.66Q111.41-22.66 110.62-22.31 109.83-21.97 109.24-21.39 108.65-20.8 108.31-20.01 107.97-19.21 107.97-18.31L107.97-18.31 107.97 0 104.97 0 104.97-25 105.97-25 107.6-22.46Q108.63-23.85 110.18-24.67 111.73-25.49 113.56-25.49L113.56-25.49 114.32-25.49Q115.83-25.49 117.18-24.91 118.52-24.34 119.52-23.34 120.52-22.34 121.09-21 121.67-19.65 121.67-18.14L121.67-18.14 121.67 0ZM131.92-31.01L128.43-31.01 128.43-35.01 131.92-35.01 131.92-31.01ZM131.67 0L128.67 0 128.67-25 131.67-25 131.67 0ZM150.52 0L147.79 0Q146.42 0 145.21-0.51 144-1.03 143.11-1.93 142.22-2.83 141.69-4.03 141.17-5.22 141.17-6.59L141.17-6.59 141.17-22.14 136.68-22.14 136.68-25 141.17-25 141.17-31.01 144.17-31.49 144.17-25 150.52-25 150.52-22.14 144.17-22.14 144.17-6.45Q144.17-5.69 144.45-5.04 144.73-4.39 145.22-3.91 145.71-3.42 146.37-3.14 147.03-2.86 147.79-2.86L147.79-2.86 150.52-2.86 150.52 0ZM173.08 0L156.52 0 156.52-35.01 159.67-35.01 159.67-3 173.08-3 173.08 0ZM193.78 0L192.78 0 191.12-2.49Q190.09-1.15 188.55-0.33 187.01 0.49 185.18 0.49L185.18 0.49 184.43 0.49Q182.91 0.49 181.57-0.09 180.23-0.66 179.23-1.66 178.22-2.66 177.65-4 177.08-5.35 177.08-6.86L177.08-6.86 177.08-7.1Q177.08-8.62 177.65-9.96 178.22-11.3 179.23-12.3 180.23-13.31 181.57-13.88 182.91-14.45 184.43-14.45L184.43-14.45 190.77-14.45 190.77-18.31Q190.77-19.21 190.43-20.01 190.09-20.8 189.5-21.39 188.92-21.97 188.12-22.31 187.33-22.66 186.43-22.66L186.43-22.66 184.67-22.66Q183.77-22.66 182.97-22.31 182.18-21.97 181.59-21.39 181.01-20.8 180.67-20.01 180.32-19.21 180.32-18.31L180.32-18.31 180.32-17.41 177.32-17.9 177.32-18.14Q177.32-19.65 177.89-21 178.47-22.34 179.47-23.34 180.47-24.34 181.81-24.91 183.16-25.49 184.67-25.49L184.67-25.49 186.43-25.49Q187.94-25.49 189.28-24.91 190.63-24.34 191.63-23.34 192.63-22.34 193.2-21 193.78-19.65 193.78-18.14L193.78-18.14 193.78 0ZM190.77-6.69L190.77-12.11 184.43-12.11Q183.52-12.11 182.73-11.77 181.94-11.43 181.35-10.83 180.76-10.23 180.42-9.44 180.08-8.64 180.08-7.74L180.08-7.74 180.08-6.69Q180.08-5.79 180.42-4.99 180.76-4.2 181.35-3.61 181.94-3.03 182.73-2.69 183.52-2.34 184.43-2.34L184.43-2.34 186.43-2.34Q187.33-2.34 188.12-2.69 188.92-3.03 189.5-3.61 190.09-4.2 190.43-4.99 190.77-5.79 190.77-6.69L190.77-6.69ZM216.48-6.86L216.48-6.86Q216.48-5.35 215.91-4 215.33-2.66 214.33-1.66 213.33-0.66 211.99-0.09 210.64 0.49 209.13 0.49L209.13 0.49 207.13 0.49Q205.61 0.49 204.27-0.09 202.93-0.66 201.93-1.66 200.93-2.66 200.35-4 199.78-5.35 199.78-6.86L199.78-6.86 199.78-35.01 202.78-35.01 202.78-22.9Q203.81-24.12 205.25-24.8 206.69-25.49 208.37-25.49L208.37-25.49 209.13-25.49Q210.64-25.49 211.99-24.91 213.33-24.34 214.33-23.34 215.33-22.34 215.91-21 216.48-19.65 216.48-18.14L216.48-18.14 216.48-6.86ZM213.48-6.69L213.48-18.31Q213.48-19.21 213.13-20.01 212.79-20.8 212.21-21.39 211.62-21.97 210.83-22.31 210.03-22.66 209.13-22.66L209.13-22.66 207.13-22.66Q206.23-22.66 205.43-22.31 204.64-21.97 204.05-21.39 203.47-20.8 203.12-20.01 202.78-19.21 202.78-18.31L202.78-18.31 202.78-6.69Q202.78-5.79 203.12-4.99 203.47-4.2 204.05-3.61 204.64-3.03 205.43-2.69 206.23-2.34 207.13-2.34L207.13-2.34 209.13-2.34Q210.03-2.34 210.83-2.69 211.62-3.03 212.21-3.61 212.79-4.2 213.13-4.99 213.48-5.79 213.48-6.69L213.48-6.69ZM239.67-6.35L239.67-6.35Q239.67-4.83 239.06-3.58 238.45-2.32 237.4-1.42 236.35-0.51 234.97-0.01 233.59 0.49 232.08 0.49L232.08 0.49 230.08 0.49Q228.56 0.49 227.18-0.09 225.8-0.66 224.76-1.66 223.73-2.66 223.1-4 222.48-5.35 222.48-6.86L222.48-6.86 222.48-7.86 225.49-8.35 225.49-6.69Q225.49-5.79 225.86-4.99 226.24-4.2 226.88-3.61 227.51-3.03 228.34-2.69 229.17-2.34 230.08-2.34L230.08-2.34 232.08-2.34Q232.98-2.34 233.81-2.61 234.64-2.88 235.29-3.38 235.93-3.88 236.31-4.59 236.69-5.3 236.69-6.2L236.69-6.2Q236.69-7.54 236.11-8.4 235.52-9.25 234.56-9.83 233.59-10.4 232.36-10.78 231.12-11.16 229.83-11.54 228.54-11.91 227.3-12.4 226.07-12.89 225.11-13.68 224.14-14.48 223.56-15.67 222.97-16.87 222.97-18.65L222.97-18.65Q222.97-20.17 223.56-21.42 224.14-22.68 225.14-23.58 226.14-24.49 227.47-24.99 228.81-25.49 230.32-25.49L230.32-25.49 232.08-25.49Q233.59-25.49 234.93-24.91 236.28-24.34 237.28-23.34 238.28-22.34 238.85-21 239.43-19.65 239.43-18.14L239.43-18.14 239.43-18.04 236.42-17.55 236.42-18.31Q236.42-19.21 236.08-20.01 235.74-20.8 235.15-21.39 234.57-21.97 233.77-22.31 232.98-22.66 232.08-22.66L232.08-22.66 230.32-22.66Q229.42-22.66 228.62-22.39 227.83-22.12 227.24-21.62 226.66-21.12 226.32-20.41 225.97-19.7 225.97-18.8L225.97-18.8Q225.97-17.5 226.56-16.69 227.15-15.87 228.11-15.31 229.07-14.75 230.31-14.37 231.54-13.99 232.82-13.59 234.1-13.18 235.34-12.67 236.57-12.16 237.53-11.35 238.5-10.55 239.08-9.34 239.67-8.13 239.67-6.35Z" opacity="1" transform="matrix(1,0,0,1,0,0)" fill="black" class="wordmark-text-0" id="SvgjsPath5196"></path></svg></g></svg></g></svg></g></svg></g><g transform="matrix(1,0,0,1,68.10249562239173,0)"><svg viewBox="0 0 94.19500875521653 60.81968129272841" height="60.81968129272841" width="94.19500875521653"><g><svg xmlns="http://www.w3.org/2000/svg" xmlns:xlink="http://www.w3.org/1999/xlink" version="1.1" x="8" y="0" viewBox="5.000504273397457 14.999240821291442 89.99899145320506 70.00075917870856" style="enable-background:new 0 0 100 100;" xml:space="preserve" height="60.81968129272841" width="78.19500875521653" class="icon-icon-0" data-fill-palette-color="accent" id="SvgjsSvg5195"><path d="M44.967 70.646A5.598 5.598 0 0 1 55.033 70.646C55.375 78.616 61.947 85 70 85 78.271 85 85 78.271 85 70S78.271 55 70 55C63.702 55 58.309 58.906 56.089 64.418A10.6 10.6 0 0 0 50 62.5C47.766 62.5 45.658 63.197 43.911 64.418 41.691 58.906 36.298 55 30 55 21.729 55 15 61.729 15 70S21.729 85 30 85C38.053 85 44.625 78.616 44.967 70.646M70 60C75.514 60 80 64.486 80 70S75.514 80 70 80C64.491 80 60.008 75.521 60.001 70.013V70.012L60 70C60 64.486 64.486 60 70 60M20 70C20 64.486 24.486 60 30 60S40 64.486 40 70L39.999 70.011V70.012C39.992 75.521 35.509 80 30 80 24.486 80 20 75.514 20 70" fill="black"></path><path d="M7.5 50H92.5A2.5 2.5 0 0 0 94.856 48.334 2.5 2.5 0 0 0 94.073 45.557C89.195 41.608 83.638 38.364 77.117 35.661L72.426 16.893A2.504 2.504 0 0 0 69.382 15.077 78.7 78.7 0 0 1 30.618 15.077 2.5 2.5 0 0 0 28.719 15.352 2.5 2.5 0 0 0 27.574 16.893L22.883 35.661C16.362 38.364 10.805 41.608 5.927 45.557A2.5 2.5 0 0 0 5.144 48.334 2.5 2.5 0 0 0 7.5 50M31.825 20.506A83.8 83.8 0 0 0 68.175 20.506L71.798 35H28.202zM25.501 40H74.498C78.175 41.485 81.528 43.138 84.596 45H15.403C18.472 43.138 21.824 41.485 25.501 40" fill="black"></path></svg></g></svg></g><g><rect width="68.10249562239173" height="3.968727659109509" y="55.8509536336189" x="162.29750437760828" fill="black"></rect><rect width="68.10249562239173" height="3.968727659109509" y="55.8509536336189" x="0" fill="black"></rect><rect width="68.10249562239173" height="3.968727659109509" y="47.913498315399885" x="162.29750437760828" fill="black"></rect><rect width="68.10249562239173" height="3.968727659109509" y="47.913498315399885" x="0" fill="black"></rect></g></svg></g></svg></g></svg></g><defs><mask></mask></defs></svg><rect width="576" height="360" fill="black" stroke="none" visibility="hidden"></rect></g></mask><mask><g id="SvgjsG5194"><svg viewBox="0 0 576 360" height="360" width="576"><g><svg></svg></g><g><svg viewBox="0 0 576 360" height="360" width="576"><g><path d="M132.115 90l155.885-90 155.885 90v180l-155.885 90-155.885-90zM136.084 267.709l151.916 87.708 151.916-87.708v-175.418l-151.916-87.708-151.916 87.708z" fill="black" fill-rule="nonzero" stroke="none" stroke-width="1" stroke-linecap="butt" stroke-linejoin="miter" stroke-miterlimit="10" stroke-dasharray="" stroke-dashoffset="0" font-family="none" font-weight="none" font-size="none" text-anchor="none" style="mix-blend-mode: normal"></path></g><g transform="matrix(1,0,0,1,172.8,122.39126341528899)"><svg viewBox="0 0 230.4 115.21747316942202" height="115.21747316942202" width="230.4"><g><svg viewBox="0 0 230.4 115.21747316942202" height="115.21747316942202" width="230.4"><g transform="matrix(1,0,0,1,0,71.20902071448106)"><svg viewBox="0 0 230.4 44.00845245494096" height="44.00845245494096" width="230.4"><g id="SvgjsG5193"><svg viewBox="0 0 230.4 44.00845245494096" height="44.00845245494096" width="230.4" id="SvgjsSvg5192"><g><svg viewBox="0 0 230.4 44.00845245494096" height="44.00845245494096" width="230.4"><g transform="matrix(1,0,0,1,0,0)"><svg width="230.4" viewBox="4 -35.01 235.67 45.019999999999996" height="44.00845245494096" data-palette-color="url(#d786f602-b860-4a11-b83c-cb6ebe558262)"></svg></g></svg></g></svg></g></svg></g><g transform="matrix(1,0,0,1,68.10249562239173,0)"><svg viewBox="0 0 94.19500875521653 60.81968129272841" height="60.81968129272841" width="94.19500875521653"><g><svg xmlns="http://www.w3.org/2000/svg" xmlns:xlink="http://www.w3.org/1999/xlink" version="1.1" x="8" y="0" viewBox="5.000504273397457 14.999240821291442 89.99899145320506 70.00075917870856" style="enable-background:new 0 0 100 100;" xml:space="preserve" height="60.81968129272841" width="78.19500875521653" class="icon-icon-0" data-fill-palette-color="accent" id="SvgjsSvg5191"><path d="M44.967 70.646A5.598 5.598 0 0 1 55.033 70.646C55.375 78.616 61.947 85 70 85 78.271 85 85 78.271 85 70S78.271 55 70 55C63.702 55 58.309 58.906 56.089 64.418A10.6 10.6 0 0 0 50 62.5C47.766 62.5 45.658 63.197 43.911 64.418 41.691 58.906 36.298 55 30 55 21.729 55 15 61.729 15 70S21.729 85 30 85C38.053 85 44.625 78.616 44.967 70.646M70 60C75.514 60 80 64.486 80 70S75.514 80 70 80C64.491 80 60.008 75.521 60.001 70.013V70.012L60 70C60 64.486 64.486 60 70 60M20 70C20 64.486 24.486 60 30 60S40 64.486 40 70L39.999 70.011V70.012C39.992 75.521 35.509 80 30 80 24.486 80 20 75.514 20 70" fill="black"></path><path d="M7.5 50H92.5A2.5 2.5 0 0 0 94.856 48.334 2.5 2.5 0 0 0 94.073 45.557C89.195 41.608 83.638 38.364 77.117 35.661L72.426 16.893A2.504 2.504 0 0 0 69.382 15.077 78.7 78.7 0 0 1 30.618 15.077 2.5 2.5 0 0 0 28.719 15.352 2.5 2.5 0 0 0 27.574 16.893L22.883 35.661C16.362 38.364 10.805 41.608 5.927 45.557A2.5 2.5 0 0 0 5.144 48.334 2.5 2.5 0 0 0 7.5 50M31.825 20.506A83.8 83.8 0 0 0 68.175 20.506L71.798 35H28.202zM25.501 40H74.498C78.175 41.485 81.528 43.138 84.596 45H15.403C18.472 43.138 21.824 41.485 25.501 40" fill="black"></path></svg></g></svg></g><g><rect width="68.10249562239173" height="3.968727659109509" y="55.8509536336189" x="162.29750437760828" fill="black"></rect><rect width="68.10249562239173" height="3.968727659109509" y="55.8509536336189" x="0" fill="black"></rect><rect width="68.10249562239173" height="3.968727659109509" y="47.913498315399885" x="162.29750437760828" fill="black"></rect><rect width="68.10249562239173" height="3.968727659109509" y="47.913498315399885" x="0" fill="black"></rect></g></svg></g></svg></g></svg></g><defs><mask></mask></defs><mask><g id="SvgjsG5190"><svg viewBox="0 0 576 360" height="360" width="576"><g><svg></svg></g><g><svg viewBox="0 0 576 360" height="360" width="576"><g><path d="M132.115 90l155.885-90 155.885 90v180l-155.885 90-155.885-90zM136.084 267.709l151.916 87.708 151.916-87.708v-175.418l-151.916-87.708-151.916 87.708z" fill="black" fill-rule="nonzero" stroke="none" stroke-width="1" stroke-linecap="butt" stroke-linejoin="miter" stroke-miterlimit="10" stroke-dasharray="" stroke-dashoffset="0" font-family="none" font-weight="none" font-size="none" text-anchor="none" style="mix-blend-mode: normal"></path></g><g transform="matrix(1,0,0,1,172.8,122.39126341528899)"><svg viewBox="0 0 230.4 115.21747316942202" height="115.21747316942202" width="230.4"><g><svg viewBox="0 0 230.4 115.21747316942202" height="115.21747316942202" width="230.4"><g transform="matrix(1,0,0,1,0,71.20902071448106)"><svg viewBox="0 0 230.4 44.00845245494096" height="44.00845245494096" width="230.4"><g id="SvgjsG5189"><svg viewBox="0 0 230.4 44.00845245494096" height="44.00845245494096" width="230.4" id="SvgjsSvg5188"><g><svg viewBox="0 0 230.4 44.00845245494096" height="44.00845245494096" width="230.4"><g transform="matrix(1,0,0,1,0,0)"><svg width="230.4" viewBox="4 -35.01 235.67 45.019999999999996" height="44.00845245494096" data-palette-color="url(#d786f602-b860-4a11-b83c-cb6ebe558262)"><path d="M7.15 0L4 0 4-35.01 7.15-35.01 7.15 0ZM30.86 0L27.85 0 27.85-18.31Q27.85-19.21 27.51-20.01 27.17-20.8 26.58-21.39 26-21.97 25.21-22.31 24.41-22.66 23.51-22.66L23.51-22.66 21.51-22.66Q20.6-22.66 19.81-22.31 19.02-21.97 18.43-21.39 17.84-20.8 17.5-20.01 17.16-19.21 17.16-18.31L17.16-18.31 17.16 0 14.16 0 14.16-25 15.16-25 16.79-22.46Q17.82-23.85 19.37-24.67 20.92-25.49 22.75-25.49L22.75-25.49 23.51-25.49Q25.02-25.49 26.36-24.91 27.71-24.34 28.71-23.34 29.71-22.34 30.28-21 30.86-19.65 30.86-18.14L30.86-18.14 30.86 0ZM53.56-6.86L53.56-6.86Q53.56-5.35 52.99-4 52.41-2.66 51.41-1.66 50.41-0.66 49.07-0.09 47.72 0.49 46.21 0.49L46.21 0.49 44.21 0.49Q42.7 0.49 41.35-0.09 40.01-0.66 39.01-1.66 38.01-2.66 37.43-4 36.86-5.35 36.86-6.86L36.86-6.86 36.86-18.14Q36.86-19.65 37.43-21 38.01-22.34 39.01-23.34 40.01-24.34 41.35-24.91 42.7-25.49 44.21-25.49L44.21-25.49 46.21-25.49Q47.72-25.49 49.07-24.91 50.41-24.34 51.41-23.34 52.41-22.34 52.99-21 53.56-19.65 53.56-18.14L53.56-18.14 53.56-17.14 50.56-16.65 50.56-18.31Q50.56-19.21 50.21-20.01 49.87-20.8 49.29-21.39 48.7-21.97 47.91-22.31 47.11-22.66 46.21-22.66L46.21-22.66 44.21-22.66Q43.31-22.66 42.51-22.31 41.72-21.97 41.13-21.39 40.55-20.8 40.2-20.01 39.86-19.21 39.86-18.31L39.86-18.31 39.86-6.69Q39.86-5.79 40.2-4.99 40.55-4.2 41.13-3.61 41.72-3.03 42.51-2.69 43.31-2.34 44.21-2.34L44.21-2.34 46.21-2.34Q47.11-2.34 47.91-2.69 48.7-3.03 49.29-3.61 49.87-4.2 50.21-4.99 50.56-5.79 50.56-6.69L50.56-6.69 50.56-8.35 53.56-7.86 53.56-6.86ZM76.26-6.86L76.26-6.86Q76.26-5.35 75.69-4 75.11-2.66 74.11-1.66 73.11-0.66 71.77-0.09 70.43 0.49 68.91 0.49L68.91 0.49 66.91 0.49Q65.4 0.49 64.06-0.09 62.71-0.66 61.71-1.66 60.71-2.66 60.14-4 59.56-5.35 59.56-6.86L59.56-6.86 59.56-18.14Q59.56-19.65 60.14-21 60.71-22.34 61.71-23.34 62.71-24.34 64.06-24.91 65.4-25.49 66.91-25.49L66.91-25.49 68.91-25.49Q70.43-25.49 71.77-24.91 73.11-24.34 74.11-23.34 75.11-22.34 75.69-21 76.26-19.65 76.26-18.14L76.26-18.14 76.26-6.86ZM73.26-6.69L73.26-18.31Q73.26-19.21 72.92-20.01 72.58-20.8 71.99-21.39 71.4-21.97 70.61-22.31 69.82-22.66 68.91-22.66L68.91-22.66 66.91-22.66Q66.01-22.66 65.21-22.31 64.42-21.97 63.84-21.39 63.25-20.8 62.91-20.01 62.57-19.21 62.57-18.31L62.57-18.31 62.57-6.69Q62.57-5.79 62.91-4.99 63.25-4.2 63.84-3.61 64.42-3.03 65.21-2.69 66.01-2.34 66.91-2.34L66.91-2.34 68.91-2.34Q69.82-2.34 70.61-2.69 71.4-3.03 71.99-3.61 72.58-4.2 72.92-4.99 73.26-5.79 73.26-6.69L73.26-6.69ZM99.21 3.15L99.21 3.15Q99.21 4.66 98.64 5.93 98.06 7.2 97.06 8.11 96.06 9.01 94.72 9.51 93.37 10.01 91.86 10.01L91.86 10.01 90.62 10.01Q89.1 10.01 87.76 9.51 86.42 9.01 85.41 8.11 84.41 7.2 83.84 5.93 83.27 4.66 83.27 3.15L83.27 3.15 83.27 3.05Q83.27 1.59 83.8 0.37 84.34-0.85 85.27-1.76L85.27-1.76Q84.1-2.47 83.4-3.67 82.7-4.88 82.7-6.35L82.7-6.35Q82.7-7.67 83.27-8.8 83.83-9.94 84.8-10.64L84.8-10.64Q83.63-11.67 82.95-13.11 82.27-14.55 82.27-16.26L82.27-16.26 82.27-18.14Q82.27-19.65 82.84-21 83.41-22.34 84.41-23.34 85.41-24.34 86.76-24.91 88.1-25.49 89.61-25.49L89.61-25.49 90.86-25.49Q92.69-25.49 94.24-24.67 95.79-23.85 96.82-22.46L96.82-22.46 98.45-25 99.45-25 99.45-16.26Q99.45-14.75 98.88-13.4 98.31-12.06 97.3-11.06 96.3-10.06 94.96-9.48 93.62-8.91 92.1-8.91L92.1-8.91 87.76-8.91Q87.25-8.91 86.78-8.7 86.32-8.5 85.96-8.15 85.61-7.81 85.41-7.34 85.22-6.86 85.22-6.35L85.22-6.35Q85.22-5.83 85.41-5.37 85.61-4.91 85.96-4.55 86.32-4.2 86.78-4 87.25-3.81 87.76-3.81L87.76-3.81 91.86-3.81Q93.37-3.81 94.72-3.31 96.06-2.81 97.06-1.9 98.06-1 98.64 0.27 99.21 1.54 99.21 3.05L99.21 3.05 99.21 3.15ZM96.47-16.09L96.47-18.31Q96.47-19.21 96.13-20.01 95.79-20.8 95.19-21.39 94.59-21.97 93.8-22.31 93.01-22.66 92.1-22.66L92.1-22.66 89.61-22.66Q88.71-22.66 87.92-22.31 87.12-21.97 86.54-21.39 85.95-20.8 85.61-20.01 85.27-19.21 85.27-18.31L85.27-18.31 85.27-16.09Q85.27-15.19 85.61-14.39 85.95-13.6 86.54-13.01 87.12-12.43 87.92-12.08 88.71-11.74 89.61-11.74L89.61-11.74 92.1-11.74Q93.01-11.74 93.8-12.08 94.59-12.43 95.19-13.01 95.79-13.6 96.13-14.39 96.47-15.19 96.47-16.09L96.47-16.09ZM96.35 3.3L96.35 2.91Q96.35 2 96.01 1.28 95.67 0.56 95.08 0.07 94.5-0.42 93.7-0.68 92.91-0.95 92.01-0.95L92.01-0.95 90.47-0.95Q89.57-0.95 88.77-0.68 87.98-0.42 87.39 0.07 86.81 0.56 86.46 1.28 86.12 2 86.12 2.91L86.12 2.91 86.12 3.3Q86.12 4.2 86.46 4.91 86.81 5.62 87.39 6.12 87.98 6.62 88.77 6.88 89.57 7.15 90.47 7.15L90.47 7.15 92.01 7.15Q92.91 7.15 93.7 6.88 94.5 6.62 95.08 6.12 95.67 5.62 96.01 4.91 96.35 4.2 96.35 3.3L96.35 3.3ZM121.67 0L118.66 0 118.66-18.31Q118.66-19.21 118.32-20.01 117.98-20.8 117.39-21.39 116.81-21.97 116.02-22.31 115.22-22.66 114.32-22.66L114.32-22.66 112.32-22.66Q111.41-22.66 110.62-22.31 109.83-21.97 109.24-21.39 108.65-20.8 108.31-20.01 107.97-19.21 107.97-18.31L107.97-18.31 107.97 0 104.97 0 104.97-25 105.97-25 107.6-22.46Q108.63-23.85 110.18-24.67 111.73-25.49 113.56-25.49L113.56-25.49 114.32-25.49Q115.83-25.49 117.18-24.91 118.52-24.34 119.52-23.34 120.52-22.34 121.09-21 121.67-19.65 121.67-18.14L121.67-18.14 121.67 0ZM131.92-31.01L128.43-31.01 128.43-35.01 131.92-35.01 131.92-31.01ZM131.67 0L128.67 0 128.67-25 131.67-25 131.67 0ZM150.52 0L147.79 0Q146.42 0 145.21-0.51 144-1.03 143.11-1.93 142.22-2.83 141.69-4.03 141.17-5.22 141.17-6.59L141.17-6.59 141.17-22.14 136.68-22.14 136.68-25 141.17-25 141.17-31.01 144.17-31.49 144.17-25 150.52-25 150.52-22.14 144.17-22.14 144.17-6.45Q144.17-5.69 144.45-5.04 144.73-4.39 145.22-3.91 145.71-3.42 146.37-3.14 147.03-2.86 147.79-2.86L147.79-2.86 150.52-2.86 150.52 0ZM173.08 0L156.52 0 156.52-35.01 159.67-35.01 159.67-3 173.08-3 173.08 0ZM193.78 0L192.78 0 191.12-2.49Q190.09-1.15 188.55-0.33 187.01 0.49 185.18 0.49L185.18 0.49 184.43 0.49Q182.91 0.49 181.57-0.09 180.23-0.66 179.23-1.66 178.22-2.66 177.65-4 177.08-5.35 177.08-6.86L177.08-6.86 177.08-7.1Q177.08-8.62 177.65-9.96 178.22-11.3 179.23-12.3 180.23-13.31 181.57-13.88 182.91-14.45 184.43-14.45L184.43-14.45 190.77-14.45 190.77-18.31Q190.77-19.21 190.43-20.01 190.09-20.8 189.5-21.39 188.92-21.97 188.12-22.31 187.33-22.66 186.43-22.66L186.43-22.66 184.67-22.66Q183.77-22.66 182.97-22.31 182.18-21.97 181.59-21.39 181.01-20.8 180.67-20.01 180.32-19.21 180.32-18.31L180.32-18.31 180.32-17.41 177.32-17.9 177.32-18.14Q177.32-19.65 177.89-21 178.47-22.34 179.47-23.34 180.47-24.34 181.81-24.91 183.16-25.49 184.67-25.49L184.67-25.49 186.43-25.49Q187.94-25.49 189.28-24.91 190.63-24.34 191.63-23.34 192.63-22.34 193.2-21 193.78-19.65 193.78-18.14L193.78-18.14 193.78 0ZM190.77-6.69L190.77-12.11 184.43-12.11Q183.52-12.11 182.73-11.77 181.94-11.43 181.35-10.83 180.76-10.23 180.42-9.44 180.08-8.64 180.08-7.74L180.08-7.74 180.08-6.69Q180.08-5.79 180.42-4.99 180.76-4.2 181.35-3.61 181.94-3.03 182.73-2.69 183.52-2.34 184.43-2.34L184.43-2.34 186.43-2.34Q187.33-2.34 188.12-2.69 188.92-3.03 189.5-3.61 190.09-4.2 190.43-4.99 190.77-5.79 190.77-6.69L190.77-6.69ZM216.48-6.86L216.48-6.86Q216.48-5.35 215.91-4 215.33-2.66 214.33-1.66 213.33-0.66 211.99-0.09 210.64 0.49 209.13 0.49L209.13 0.49 207.13 0.49Q205.61 0.49 204.27-0.09 202.93-0.66 201.93-1.66 200.93-2.66 200.35-4 199.78-5.35 199.78-6.86L199.78-6.86 199.78-35.01 202.78-35.01 202.78-22.9Q203.81-24.12 205.25-24.8 206.69-25.49 208.37-25.49L208.37-25.49 209.13-25.49Q210.64-25.49 211.99-24.91 213.33-24.34 214.33-23.34 215.33-22.34 215.91-21 216.48-19.65 216.48-18.14L216.48-18.14 216.48-6.86ZM213.48-6.69L213.48-18.31Q213.48-19.21 213.13-20.01 212.79-20.8 212.21-21.39 211.62-21.97 210.83-22.31 210.03-22.66 209.13-22.66L209.13-22.66 207.13-22.66Q206.23-22.66 205.43-22.31 204.64-21.97 204.05-21.39 203.47-20.8 203.12-20.01 202.78-19.21 202.78-18.31L202.78-18.31 202.78-6.69Q202.78-5.79 203.12-4.99 203.47-4.2 204.05-3.61 204.64-3.03 205.43-2.69 206.23-2.34 207.13-2.34L207.13-2.34 209.13-2.34Q210.03-2.34 210.83-2.69 211.62-3.03 212.21-3.61 212.79-4.2 213.13-4.99 213.48-5.79 213.48-6.69L213.48-6.69ZM239.67-6.35L239.67-6.35Q239.67-4.83 239.06-3.58 238.45-2.32 237.4-1.42 236.35-0.51 234.97-0.01 233.59 0.49 232.08 0.49L232.08 0.49 230.08 0.49Q228.56 0.49 227.18-0.09 225.8-0.66 224.76-1.66 223.73-2.66 223.1-4 222.48-5.35 222.48-6.86L222.48-6.86 222.48-7.86 225.49-8.35 225.49-6.69Q225.49-5.79 225.86-4.99 226.24-4.2 226.88-3.61 227.51-3.03 228.34-2.69 229.17-2.34 230.08-2.34L230.08-2.34 232.08-2.34Q232.98-2.34 233.81-2.61 234.64-2.88 235.29-3.38 235.93-3.88 236.31-4.59 236.69-5.3 236.69-6.2L236.69-6.2Q236.69-7.54 236.11-8.4 235.52-9.25 234.56-9.83 233.59-10.4 232.36-10.78 231.12-11.16 229.83-11.54 228.54-11.91 227.3-12.4 226.07-12.89 225.11-13.68 224.14-14.48 223.56-15.67 222.97-16.87 222.97-18.65L222.97-18.65Q222.97-20.17 223.56-21.42 224.14-22.68 225.14-23.58 226.14-24.49 227.47-24.99 228.81-25.49 230.32-25.49L230.32-25.49 232.08-25.49Q233.59-25.49 234.93-24.91 236.28-24.34 237.28-23.34 238.28-22.34 238.85-21 239.43-19.65 239.43-18.14L239.43-18.14 239.43-18.04 236.42-17.55 236.42-18.31Q236.42-19.21 236.08-20.01 235.74-20.8 235.15-21.39 234.57-21.97 233.77-22.31 232.98-22.66 232.08-22.66L232.08-22.66 230.32-22.66Q229.42-22.66 228.62-22.39 227.83-22.12 227.24-21.62 226.66-21.12 226.32-20.41 225.97-19.7 225.97-18.8L225.97-18.8Q225.97-17.5 226.56-16.69 227.15-15.87 228.11-15.31 229.07-14.75 230.31-14.37 231.54-13.99 232.82-13.59 234.1-13.18 235.34-12.67 236.57-12.16 237.53-11.35 238.5-10.55 239.08-9.34 239.67-8.13 239.67-6.35Z" opacity="1" transform="matrix(1,0,0,1,0,0)" fill="black" class="wordmark-text-0" id="SvgjsPath5187"></path></svg></g></svg></g></svg></g></svg></g><g transform="matrix(1,0,0,1,68.10249562239173,0)"><svg viewBox="0 0 94.19500875521653 60.81968129272841" height="60.81968129272841" width="94.19500875521653"><g><svg xmlns="http://www.w3.org/2000/svg" xmlns:xlink="http://www.w3.org/1999/xlink" version="1.1" x="8" y="0" viewBox="5.000504273397457 14.999240821291442 89.99899145320506 70.00075917870856" style="enable-background:new 0 0 100 100;" xml:space="preserve" height="60.81968129272841" width="78.19500875521653" class="icon-icon-0" data-fill-palette-color="accent" id="SvgjsSvg5186"><path d="M44.967 70.646A5.598 5.598 0 0 1 55.033 70.646C55.375 78.616 61.947 85 70 85 78.271 85 85 78.271 85 70S78.271 55 70 55C63.702 55 58.309 58.906 56.089 64.418A10.6 10.6 0 0 0 50 62.5C47.766 62.5 45.658 63.197 43.911 64.418 41.691 58.906 36.298 55 30 55 21.729 55 15 61.729 15 70S21.729 85 30 85C38.053 85 44.625 78.616 44.967 70.646M70 60C75.514 60 80 64.486 80 70S75.514 80 70 80C64.491 80 60.008 75.521 60.001 70.013V70.012L60 70C60 64.486 64.486 60 70 60M20 70C20 64.486 24.486 60 30 60S40 64.486 40 70L39.999 70.011V70.012C39.992 75.521 35.509 80 30 80 24.486 80 20 75.514 20 70" fill="black"></path><path d="M7.5 50H92.5A2.5 2.5 0 0 0 94.856 48.334 2.5 2.5 0 0 0 94.073 45.557C89.195 41.608 83.638 38.364 77.117 35.661L72.426 16.893A2.504 2.504 0 0 0 69.382 15.077 78.7 78.7 0 0 1 30.618 15.077 2.5 2.5 0 0 0 28.719 15.352 2.5 2.5 0 0 0 27.574 16.893L22.883 35.661C16.362 38.364 10.805 41.608 5.927 45.557A2.5 2.5 0 0 0 5.144 48.334 2.5 2.5 0 0 0 7.5 50M31.825 20.506A83.8 83.8 0 0 0 68.175 20.506L71.798 35H28.202zM25.501 40H74.498C78.175 41.485 81.528 43.138 84.596 45H15.403C18.472 43.138 21.824 41.485 25.501 40" fill="black"></path></svg></g></svg></g><g><rect width="68.10249562239173" height="3.968727659109509" y="55.8509536336189" x="162.29750437760828" fill="black"></rect><rect width="68.10249562239173" height="3.968727659109509" y="55.8509536336189" x="0" fill="black"></rect><rect width="68.10249562239173" height="3.968727659109509" y="47.913498315399885" x="162.29750437760828" fill="black"></rect><rect width="68.10249562239173" height="3.968727659109509" y="47.913498315399885" x="0" fill="black"></rect></g></svg></g></svg></g></svg></g><defs><mask></mask></defs></svg><rect width="576" height="360" fill="black" stroke="none" visibility="hidden"></rect></g></mask></svg><rect width="576" height="360" fill="black" stroke="none" visibility="hidden"></rect></g></mask></svg><rect width="576" height="360" fill="black" stroke="none" visibility="hidden"></rect></g></mask><linearGradient x1="0" x2="1" y1="0.548" y2="0.55" id="defac858-730e-4156-93ab-ff1cb8bb8d21"><stop stop-color="#ff6cab" offset="0"></stop><stop stop-color="#7366ff" offset="1"></stop></linearGradient></svg><rect width="576" height="360" fill="none" stroke="none" visibility="hidden"></rect></g></svg></g></svg>